<?xml version="1.0" standalone="no"?><!DOCTYPE svg PUBLIC "-//W3C//DTD SVG 1.1//EN" "http://www.w3.org/Graphics/SVG/1.1/DTD/svg11.dtd"><svg t="1501548849808" class="icon" style="" viewBox="0 0 1024 1024" version="1.1" xmlns="http://www.w3.org/2000/svg" p-id="1053" xmlns:xlink="http://www.w3.org/1999/xlink" width="200" height="200"><defs><style type="text/css"></style></defs><path d="M795.683389 829.930881H228.316611c-63.928651 0-115.299889-51.371237-115.299889-115.299889V400.695652c0-47.946488 29.681159-89.043478 70.77815-107.308807-1.141583-1.141583-2.283166-4.566332-2.283166-6.849498 0 0 13.698997-36.530658 20.548495-36.530658h76.486064c5.707915 0 21.690078 26.25641 26.256411 34.247492h46.804905s46.804905-91.326644 68.494983-91.326645h251.148272c22.831661 0 57.079153 91.326644 57.079153 91.326645h67.3534c63.928651 0 115.299889 51.371237 115.299889 115.299888v313.93534c0 65.070234-51.371237 116.441472-115.299889 116.441472zM237.449275 398.412486c25.114827 0 45.663322-20.548495 45.663323-45.663322s-20.548495-45.663322-45.663323-45.663322-45.663322 20.548495-45.663322 45.663322 20.548495 45.663322 45.663322 45.663322z m308.227425-79.910814c-119.866221 0-216.90078 97.03456-216.90078 215.759198s97.03456 215.759197 216.90078 215.759197 216.90078-97.03456 216.90078-215.759197-97.03456-215.759197-216.90078-215.759198z m0 364.164995c-82.19398 0-148.405797-66.211817-148.405797-148.405797s66.211817-148.405797 148.405797-148.405798 148.405797 66.211817 148.405797 148.405798-66.211817 148.405797-148.405797 148.405797z" p-id="1054" fill="#e6e6e6"></path></svg>