<?xml version="1.0" standalone="no"?><!DOCTYPE svg PUBLIC "-//W3C//DTD SVG 1.1//EN" "http://www.w3.org/Graphics/SVG/1.1/DTD/svg11.dtd"><svg t="1501557397556" class="icon" style="" viewBox="0 0 1024 1024" version="1.1" xmlns="http://www.w3.org/2000/svg" p-id="1654" xmlns:xlink="http://www.w3.org/1999/xlink" width="200" height="200"><defs><style type="text/css"></style></defs><path d="M455.28321 455.332691 455.28321 398.46596 398.416479 398.46596 398.416479 341.599229 341.549749 341.599229 341.549749 398.46596 341.549749 455.332691 398.416479 455.332691Z" p-id="1655" fill="#707070"></path><path d="M739.616865 512.199422l56.866731 0 0 56.866731-56.866731 0 0-56.866731Z" p-id="1656" fill="#707070"></path><path d="M455.28321 512.199422 398.416479 512.199422 341.549749 512.199422 341.549749 569.066153 398.416479 569.066153 455.28321 569.066153 455.28321 625.932884 512.149941 625.932884 512.149941 569.066153 512.149941 512.199422 512.149941 455.332691 455.28321 455.332691Z" p-id="1657" fill="#707070"></path><path d="M341.549749 284.732498l0-73.92705 0-39.806412L341.549749 153.939717l0-39.806412L341.549749 57.266574 341.549749 0.399843l-28.432866 0-28.432866 0-56.866731 0-56.866731 0-56.866731 0L57.217094 0.399843 0.350363 0.399843l0 56.866731 0 56.866731L0.350363 153.939717l0 17.060319L0.350363 205.119675l0 5.686773 0 73.92705 0 5.686773 0 51.179958 56.866731 0 56.866731 0 56.866731 0 56.866731 0 113.733462 0 0-45.493185L341.550748 284.732498zM170.950555 284.732498l-56.866731 0L57.217094 284.732498l0-73.92705L57.217094 205.119675l0-34.119639L57.217094 153.939717l0-39.806412L57.217094 57.266574l56.866731 0 56.866731 0 56.866731 0 56.866731 0 0 56.866731L284.684017 153.939717l0 17.060319 0 39.806412 0 73.92705-56.866731 0L170.950555 284.733498z" p-id="1658" fill="#707070"></path><path d="M114.083825 114.133305 114.083825 171.000036 114.083825 227.866767 170.950555 227.866767 227.817286 227.866767 227.817286 171.000036 227.817286 114.133305 170.950555 114.133305Z" p-id="1659" fill="#707070"></path><path d="M284.683018 682.799615l-56.866731 0-56.866731 0-56.866731 0L57.217094 682.799615 0.350363 682.799615l0 56.866731 0 56.866731 0 39.806412 0 17.060319 0 34.119639 0 5.686773 0 73.92705 0 5.686773 0 51.179958 56.866731 0 56.866731 0 56.866731 0 56.866731 0 113.733462 0 0-45.493185 0-11.373546 0-73.92705 0-39.806412 0-17.060319 0-39.806412 0-56.866731 0-56.866731-28.432866 0L284.683018 682.799615zM284.683018 836.339488l0 17.060319 0 39.806412 0 73.92705-56.866731 0-56.866731 0-56.866731 0L57.217094 967.133269l0-73.92705 0-5.686773 0-34.119639 0-17.060319 0-39.806412 0-56.866731 56.866731 0 56.866731 0 56.866731 0 56.866731 0 0 56.866731L284.684017 836.339488z" p-id="1660" fill="#707070"></path><path d="M114.083825 796.532077 114.083825 853.398808 114.083825 910.265539 170.950555 910.265539 227.817286 910.265539 227.817286 853.398808 227.817286 796.532077 170.950555 796.532077Z" p-id="1661" fill="#707070"></path><path d="M995.516654 0.399843l-28.432866 0-56.866731 0-56.866731 0-56.866731 0-56.866731 0-56.866731 0 0 56.866731 0 56.866731L682.750134 153.939717l0 17.060319L682.750134 205.119675l0 5.686773 0 73.92705 0 5.686773 0 51.179958 56.866731 0 56.866731 0 56.866731 0 56.866731 0L1023.94952 341.600229l0-45.493185 0-11.373546 0-73.92705 0-39.806412L1023.94952 153.939717l0-39.806412L1023.94952 57.266574 1023.94952 0.399843 995.516654 0.399843zM967.082789 153.939717l0 17.060319 0 39.806412 0 73.92705-56.866731 0-56.866731 0-56.866731 0-56.866731 0 0-73.92705L739.615865 205.119675l0-34.119639L739.615865 153.939717l0-39.806412L739.615865 57.266574l56.866731 0 56.866731 0 56.866731 0 56.866731 0 0 56.866731L967.082789 153.939717z" p-id="1662" fill="#707070"></path><path d="M796.482596 114.133305 796.482596 171.000036 796.482596 227.866767 853.349327 227.866767 910.216058 227.866767 910.216058 171.000036 910.216058 114.133305 853.349327 114.133305Z" p-id="1663" fill="#707070"></path><path d="M398.416479 284.732498l56.866731 0 0 56.866731-56.866731 0 0-56.866731Z" p-id="1664" fill="#707070"></path><path d="M284.683018 455.332691 227.817286 455.332691 227.817286 512.199422 284.683018 512.199422 341.549749 512.199422 341.549749 455.332691Z" p-id="1665" fill="#707070"></path><path d="M114.083825 455.332691l56.866731 0 0 56.866731-56.866731 0 0-56.866731Z" p-id="1666" fill="#707070"></path><path d="M57.217094 512.199422l56.866731 0 0 56.866731-56.866731 0 0-56.866731Z" p-id="1667" fill="#707070"></path><path d="M0.350363 398.46596l56.866731 0 0 56.866731-56.866731 0 0-56.866731Z" p-id="1668" fill="#707070"></path><path d="M170.950555 512.199422l56.866731 0 0 56.866731-56.866731 0 0-56.866731Z" p-id="1669" fill="#707070"></path><path d="M455.28321 682.799615l56.866731 0 0 56.866731-56.866731 0 0-56.866731Z" p-id="1670" fill="#707070"></path><path d="M739.616865 682.799615l56.866731 0 0 56.866731-56.866731 0 0-56.866731Z" p-id="1671" fill="#707070"></path><path d="M512.149941 739.666346l56.866731 0 0 56.866731-56.866731 0 0-56.866731Z" p-id="1672" fill="#707070"></path><path d="M398.416479 796.532077l56.866731 0 0 56.866731-56.866731 0 0-56.866731Z" p-id="1673" fill="#707070"></path><path d="M512.149941 910.265539 512.149941 853.398808 455.28321 853.398808 455.28321 910.265539 455.28321 967.132269 512.149941 967.132269 569.016672 967.132269 569.016672 910.265539Z" p-id="1674" fill="#707070"></path><path d="M569.016672 967.132269l56.866731 0 0 56.866731-56.866731 0 0-56.866731Z" p-id="1675" fill="#707070"></path><path d="M569.016672 796.532077l56.866731 0 0 56.866731-56.866731 0 0-56.866731Z" p-id="1676" fill="#707070"></path><path d="M341.549749 625.932884 341.549749 682.799615 398.416479 682.799615 455.28321 682.799615 455.28321 625.932884 398.416479 625.932884Z" p-id="1677" fill="#707070"></path><path d="M739.616865 569.066153 682.750134 569.066153 625.883403 569.066153 569.016672 569.066153 569.016672 625.932884 569.016672 682.799615 625.883403 682.799615 625.883403 625.932884 682.750134 625.932884 682.750134 682.799615 739.616865 682.799615 739.616865 625.932884Z" p-id="1678" fill="#707070"></path><path d="M796.482596 512.199422 853.349327 512.199422 853.349327 455.332691 910.216058 455.332691 910.216058 398.46596 853.349327 398.46596 796.482596 398.46596 739.616865 398.46596 739.616865 455.332691 796.482596 455.332691Z" p-id="1679" fill="#707070"></path><path d="M910.216058 569.066153 967.082789 569.066153 967.082789 512.199422 967.082789 455.332691 910.216058 455.332691 910.216058 512.199422Z" p-id="1680" fill="#707070"></path><path d="M967.082789 625.932884 910.216058 625.932884 910.216058 569.066153 853.349327 569.066153 853.349327 625.932884 796.482596 625.932884 796.482596 682.799615 853.349327 682.799615 910.216058 682.799615 967.082789 682.799615 967.082789 739.666346 1023.94952 739.666346 1023.94952 682.799615 1023.94952 625.932884 1023.94952 569.066153 967.082789 569.066153Z" p-id="1681" fill="#707070"></path><path d="M853.349327 910.265539 910.216058 910.265539 967.082789 910.265539 967.082789 853.398808 1023.94952 853.398808 1023.94952 796.532077 967.082789 796.532077 910.216058 796.532077 853.349327 796.532077 853.349327 853.398808Z" p-id="1682" fill="#707070"></path><path d="M682.750134 967.132269l56.866731 0 0 56.866731-56.866731 0 0-56.866731Z" p-id="1683" fill="#707070"></path><path d="M853.349327 967.132269 796.482596 967.132269 796.482596 1023.999 853.349327 1023.999 910.216058 1023.999 967.082789 1023.999 967.082789 967.132269 910.216058 967.132269Z" p-id="1684" fill="#707070"></path><path d="M967.082789 910.265539l56.866731 0 0 56.866731-56.866731 0 0-56.866731Z" p-id="1685" fill="#707070"></path><path d="M739.616865 910.265539l56.866731 0 0 56.866731-56.866731 0 0-56.866731Z" p-id="1686" fill="#707070"></path><path d="M796.482596 853.398808 796.482596 796.532077 739.616865 796.532077 682.750134 796.532077 682.750134 853.398808 682.750134 910.265539 739.616865 910.265539 739.616865 853.398808Z" p-id="1687" fill="#707070"></path><path d="M796.482596 739.666346l56.866731 0 0 56.866731-56.866731 0 0-56.866731Z" p-id="1688" fill="#707070"></path><path d="M682.750134 455.332691 682.750134 398.46596 625.883403 398.46596 625.883403 455.332691 569.016672 455.332691 569.016672 512.199422 625.883403 512.199422 682.750134 512.199422 739.616865 512.199422 739.616865 455.332691Z" p-id="1689" fill="#707070"></path><path d="M512.149941 398.46596l56.866731 0 0 56.866731-56.866731 0 0-56.866731Z" p-id="1690" fill="#707070"></path><path d="M569.016672 341.599229l56.866731 0 0 56.866731-56.866731 0 0-56.866731Z" p-id="1691" fill="#707070"></path><path d="M569.016672 284.732498 625.883403 284.732498 625.883403 227.866767 569.016672 227.866767 569.016672 171.000036 625.883403 171.000036 625.883403 114.133305 569.016672 114.133305 512.149941 114.133305 512.149941 171.000036 512.149941 227.866767 455.28321 227.866767 455.28321 284.732498 512.149941 284.732498Z" p-id="1692" fill="#707070"></path><path d="M398.416479 171.000036l56.866731 0 0 56.866731-56.866731 0 0-56.866731Z" p-id="1693" fill="#707070"></path><path d="M455.28321 57.266574l56.866731 0 0 56.866731-56.866731 0 0-56.866731Z" p-id="1694" fill="#707070"></path><path d="M512.149941 0.399843l56.866731 0 0 56.866731-56.866731 0 0-56.866731Z" p-id="1695" fill="#707070"></path></svg>