<?xml version="1.0" standalone="no"?><!DOCTYPE svg PUBLIC "-//W3C//DTD SVG 1.1//EN" "http://www.w3.org/Graphics/SVG/1.1/DTD/svg11.dtd"><svg t="1501511197651" class="icon" style="" viewBox="0 0 1024 1024" version="1.1" xmlns="http://www.w3.org/2000/svg" p-id="1561" xmlns:xlink="http://www.w3.org/1999/xlink" width="200" height="200"><defs><style type="text/css"></style></defs><path d="M800.704 829.952c-9.536-22.592-37.888-55.04-119.296-82.88-140.928-48.128-207.232-107.52-212.608-152.064-1.664-13.952 2.56-36.864 9.472-45.056 43.904-52.032 97.984-110.656 97.984-197.632 0-121.408-77.888-219.968-173.952-219.968S228.352 230.848 228.352 352.32c0 85.824 55.936 141.952 95.744 196.224 25.6 34.944 8.768 75.648-15.552 91.456-31.68 20.608-251.2 108.544-299.2 181.12-4.224 5.504-9.344 24.256-9.344 26.752a43.968 43.968 0 0 0 43.712 43.776H760.96c20.736 0 46.656-17.024 40.832-58.944-0.128-1.024-0.64-1.92-1.088-2.752z" p-id="1562" fill="#ffffff"></path><path d="M874.368 471.68V305.344h-71.744V471.68h-150.144v55.488h150.144v151.36h71.744V527.168H1024V471.68z" p-id="1563" fill="#ffffff"></path></svg>