<?xml version="1.0" standalone="no"?><!DOCTYPE svg PUBLIC "-//W3C//DTD SVG 1.1//EN" "http://www.w3.org/Graphics/SVG/1.1/DTD/svg11.dtd"><svg t="1501511942087" class="icon" style="" viewBox="0 0 1024 1024" version="1.1" xmlns="http://www.w3.org/2000/svg" p-id="8073" xmlns:xlink="http://www.w3.org/1999/xlink" width="200" height="200"><defs><style type="text/css"></style></defs><path d="M512 75.093c-240.299 0-436.907 196.608-436.907 436.907s196.608 436.907 436.907 436.907 436.907-196.608 436.907-436.907-196.608-436.907-436.907-436.907zM675.84 320.853c30.037 0 54.613 24.576 54.613 54.613s-24.576 54.613-54.613 54.613-54.613-24.576-54.613-54.613 24.576-54.613 54.613-54.613zM348.16 320.853c30.037 0 54.613 24.576 54.613 54.613s-24.576 54.613-54.613 54.613-54.613-24.576-54.613-54.613 24.576-54.613 54.613-54.613zM512 757.76c-106.496 0-196.608-68.267-232.107-163.84h464.213c-32.768 95.573-125.611 163.84-232.107 163.84z" fill="#FFB300" p-id="8074"></path></svg>