<?xml version="1.0" standalone="no"?><!DOCTYPE svg PUBLIC "-//W3C//DTD SVG 1.1//EN" "http://www.w3.org/Graphics/SVG/1.1/DTD/svg11.dtd"><svg t="1501568454448" class="icon" style="" viewBox="0 0 1024 1024" version="1.1" xmlns="http://www.w3.org/2000/svg" p-id="2665" xmlns:xlink="http://www.w3.org/1999/xlink" width="200" height="200"><defs><style type="text/css"></style></defs><path d="M512.196923 934.360615c-97.319385 0-310.784-230.990769-429.331692-368.718769-52.893538-54.468923-82.865231-128.512-82.865231-206.769231 0-165.297231 134.459077-299.795692 299.756308-299.795692 76.957538 0 149.346462 28.908308 204.524308 80.541538 55.138462-51.633231 127.527385-80.541538 204.484923-80.541538 165.297231 0 299.756308 134.498462 299.756308 299.795692 0 77.627077-29.577846 151.276308-83.298462 207.36C814.395077 702.227692 610.264615 934.360615 512.196923 934.360615L512.196923 934.360615zM299.756308 137.846154c-121.816615 0-220.987077 99.131077-220.987077 221.026462 0 57.659077 22.055385 112.285538 62.227692 153.678769 185.540923 215.355077 333.981538 343.04 371.2 343.04 37.021538 0 179.593846-127.763692 354.107077-341.543385 41.668923-43.677538 63.448615-97.949538 63.448615-155.175385 0-121.895385-99.131077-221.026462-220.987077-221.026462-68.056615 0-131.347692 30.680615-173.568 84.204308l-30.916923 39.148308-30.916923-39.148308C431.104 168.526769 367.852308 137.846154 299.756308 137.846154L299.756308 137.846154z" p-id="2666" fill="#ffffff"></path></svg>