<?xml version="1.0" standalone="no"?><!DOCTYPE svg PUBLIC "-//W3C//DTD SVG 1.1//EN" "http://www.w3.org/Graphics/SVG/1.1/DTD/svg11.dtd"><svg t="1501510525903" class="icon" style="" viewBox="0 0 1024 1024" version="1.1" xmlns="http://www.w3.org/2000/svg" p-id="7790" xmlns:xlink="http://www.w3.org/1999/xlink" width="200" height="200"><defs><style type="text/css"></style></defs><path d="M716.8 369.664h163.84v40.96H716.8zM676.864 492.544H880.64v40.96H676.864zM716.8 615.424h163.84v40.96H716.8z" fill="#515151" p-id="7791"></path><path d="M553.984 602.112c-8.192-4.096-13.312-12.288-13.312-22.528v-10.24c0-7.168 3.072-14.336 9.216-19.456 45.056-34.816 73.728-94.208 73.728-161.792 0-106.496-72.704-192.512-162.816-192.512S297.984 282.624 297.984 389.12c0 66.56 28.672 124.928 71.68 159.744 6.144 4.096 9.216 11.264 9.216 19.456v13.312c0 9.216-5.12 18.432-13.312 22.528C268.288 652.288 143.36 721.92 143.36 775.168v52.224h634.88v-52.224c0-53.248-125.952-123.904-224.256-173.056z m-93.184 184.32H184.32v-11.264c2.048-7.168 19.456-45.056 199.68-135.168 22.528-11.264 35.84-33.792 35.84-58.368v-13.312c0-20.48-9.216-38.912-24.576-51.2-35.84-28.672-56.32-75.776-56.32-128 0-83.968 54.272-151.552 121.856-151.552S582.656 305.152 582.656 389.12c0 53.248-21.504 101.376-58.368 129.024-15.36 12.288-25.6 31.744-25.6 52.224v10.24c0 24.576 14.336 47.104 35.84 58.368C717.824 730.112 736.256 768 737.28 776.192v11.264H460.8z" fill="#515151" p-id="7792"></path></svg>