<svg width="1024" height="1024" xmlns="http://www.w3.org/2000/svg" class="icon">
 <defs>
  <style type="text/css"/>
 </defs>
 <g>
  <title>background</title>
  <rect fill="none" id="canvas_background" height="402" width="582" y="-1" x="-1"/>
 </g>
 <g>
  <title>Layer 1</title>
  <path stroke="null" id="svg_1" fill="#707070" d="m510.824011,1020.450476c-68.279147,0 -134.52386,-13.48152 -196.894154,-40.069942c-60.2346,-25.679141 -114.327903,-62.436707 -160.777092,-109.254374c-46.4492,-46.816511 -82.919522,-101.337573 -108.396043,-162.048485c-26.380974,-62.86235 -39.756721,-129.632069 -39.756721,-198.451154s13.375747,-135.587637 39.755574,-198.451154c25.476522,-60.710912 61.946832,-115.231986 108.396032,-162.048485s100.542503,-83.575233 160.777103,-109.253218c62.370294,-26.588422 128.613849,-40.069942 196.894143,-40.069942s134.52386,13.48152 196.894154,40.069942c60.2346,25.677985 114.327903,62.436707 160.777092,109.253218c46.448053,46.816511 82.918375,101.337573 108.396043,162.048485c26.379816,62.863517 39.755563,129.630913 39.755563,198.451154s-13.375747,135.588804 -39.755563,198.451154c-25.477669,60.712079 -61.946844,115.231974 -108.396043,162.048485s-100.54365,83.575233 -160.777092,109.254374c-62.369147,26.588422 -128.613849,40.069942 -196.892996,40.069942zm0,-991.00084c-64.454216,0 -126.974113,12.72069 -185.822112,37.807172c-56.846929,24.234029 -107.903538,58.931791 -151.752144,103.125988s-78.272992,95.655707 -102.316886,152.95217c-24.88966,59.313368 -37.510557,122.326492 -37.510557,187.291556c0,64.963907 12.620897,127.979344 37.510557,187.291544c24.045053,57.296474 58.469415,108.755661 102.316886,152.951025c43.848607,44.195353 94.905215,78.891947 151.752144,103.125976c58.847999,25.08765 121.366737,37.808339 185.822112,37.808339s126.974102,-12.719534 185.8221,-37.808339c56.846929,-24.234029 107.903538,-58.93178 151.752156,-103.125976c43.848607,-44.195364 78.271833,-95.654551 102.315728,-152.951025c24.890818,-59.313357 37.511704,-122.327637 37.511704,-187.291544c0,-64.965064 -12.619739,-127.979355 -37.511704,-187.291556c-24.043895,-57.296463 -58.468268,-108.756817 -102.315728,-152.95217c-43.848618,-44.195364 -94.905227,-78.891959 -151.752156,-103.125988c-58.847999,-25.086482 -121.367884,-37.807172 -185.8221,-37.807172z"/>
  <path id="svg_2" fill="#707070" d="m554.89597,466.40352c77.52261,0 153.34448,0 229.90723,0c0,26.61108 0,52.65422 0,79.95398c-75.96514,0 -152.17586,0 -229.45697,0c0,77.23302 0,153.2268 0,229.55214c-27.21381,0 -53.34598,0 -80.52806,0c0,-76.26598 0,-152.24238 0,-229.17351c-77.06928,0 -153.09786,0 -229.58182,0c0,-27.02347 0,-53.08708 0,-80.00413c76.25269,0 152.28536,0 229.2646,0c0,-76.86257 0,-152.88297 0,-229.38636c27.07872,0 53.21089,0 80.39605,0c-0.00103,75.99481 -0.00103,151.98348 -0.00103,229.05788z"/>
 </g>
</svg>