<?xml version="1.0" standalone="no"?><!DOCTYPE svg PUBLIC "-//W3C//DTD SVG 1.1//EN" "http://www.w3.org/Graphics/SVG/1.1/DTD/svg11.dtd"><svg t="1501589853779" class="icon" style="" viewBox="0 0 1024 1024" version="1.1" xmlns="http://www.w3.org/2000/svg" p-id="5606" xmlns:xlink="http://www.w3.org/1999/xlink" width="200" height="200"><defs><style type="text/css"></style></defs><path d="M515.019777 956.450535c-60.71992 0-119.630634-11.894911-175.095877-35.354206-53.565986-22.657023-101.670587-55.088666-142.977365-96.396467-41.306778-41.306778-73.739445-89.411379-96.395444-142.977365-23.460318-55.464219-35.355229-114.375957-35.355229-175.095877S77.090772 386.995985 100.550067 331.530742c22.655999-53.565986 55.088666-101.670587 96.395444-142.977365s89.411379-73.739445 142.977365-96.395444C395.388119 68.698638 454.29781 56.803727 515.018753 56.803727s119.630634 11.894911 175.095877 35.354206c53.565986 22.655999 101.670587 55.088666 142.977365 96.395444 41.305755 41.306778 73.738421 89.411379 96.395444 142.977365 23.459295 55.465243 35.354206 114.374934 35.354206 175.095877s-11.894911 119.631658-35.354206 175.095877c-22.657023 53.56701-55.088666 101.670587-96.395444 142.977365s-89.412402 73.739445-142.977365 96.396467C634.650411 944.555623 575.739696 956.450535 515.019777 956.450535zM515.019777 82.078367c-57.31845 0-112.916722 11.223622-165.249625 33.357735-50.553373 21.381983-95.957469 51.996235-134.951575 90.989317s-69.607334 84.398202-90.989317 134.951575C101.695147 393.709897 90.471524 449.307146 90.471524 506.626619c0 57.31845 11.223622 112.917746 33.357735 165.249625 21.383006 50.553373 51.996235 95.956446 90.989317 134.950552 38.994106 38.994106 84.398202 69.607334 134.951575 90.989317 52.332902 22.135136 107.930151 33.358759 165.249625 33.358759S627.936499 919.952272 680.269401 897.816113c50.553373-21.381983 95.957469-51.996235 134.951575-90.989317 38.994106-38.994106 69.606311-84.397179 90.988294-134.950552 22.135136-52.332902 33.358759-107.931175 33.358759-165.249625 0-57.319473-11.222599-112.917746-33.358759-165.249625-21.381983-50.553373-51.995211-95.957469-90.988294-134.951575-38.994106-38.994106-84.398202-69.607334-134.951575-90.989317C627.936499 93.301989 572.338227 82.078367 515.019777 82.078367z" fill="#707070" p-id="5607"></path><path d="M554.895973 466.403522c77.522608 0 153.34448 0 229.907227 0 0 26.611078 0 52.65422 0 79.953983-75.965136 0-152.175865 0-229.456972 0 0 77.233012 0 153.2268 0 229.55214-27.213805 0-53.345975 0-80.528058 0 0-76.265988 0-152.24238 0-229.173516-77.069283 0-153.097864 0-229.581816 0 0-27.02347 0-53.087079 0-80.004125 76.252685 0 152.285359 0 229.264591 0 0-76.862575 0-152.882969 0-229.386364 27.078729 0 53.210899 0 80.396051 0C554.895973 313.340451 554.895973 389.329123 554.895973 466.403522z" fill="#707070" p-id="5608"></path></svg>