<?xml version="1.0" standalone="no"?><!DOCTYPE svg PUBLIC "-//W3C//DTD SVG 1.1//EN" "http://www.w3.org/Graphics/SVG/1.1/DTD/svg11.dtd"><svg t="1501576153611" class="icon" style="" viewBox="0 0 1024 1024" version="1.1" xmlns="http://www.w3.org/2000/svg" p-id="1381" xmlns:xlink="http://www.w3.org/1999/xlink" width="200" height="200"><defs><style type="text/css"></style></defs><path d="M511.707334 958.890097c-60.402695 0-119.008464-11.834536-174.191274-35.175127-53.290717-22.539342-101.144608-54.803163-142.235468-95.893001-41.09086-41.09086-73.353658-88.945775-95.894024-142.235468C76.045977 630.40369 64.211441 571.796898 64.211441 511.394203s11.834536-119.009488 35.175127-174.192298c22.540366-53.289694 54.803163-101.144608 95.894024-142.235468 41.09086-41.09086 88.945775-73.354682 142.235468-95.894024C392.697847 75.732845 451.304639 63.898309 511.707334 63.898309c60.402695 0 119.009488 11.834536 174.192298 35.175127 53.289694 22.539342 101.145631 54.803163 142.235468 95.893001 41.09086 41.09086 73.354682 88.945775 95.894024 142.235468 23.340591 55.18281 35.175127 113.789603 35.175127 174.192298s-11.834536 119.009488-35.175127 174.192298c-22.539342 53.289694-54.803163 101.144608-95.894024 142.235468-41.089837 41.089837-88.945775 73.353658-142.235468 95.893001C630.715799 947.05556 572.110029 958.890097 511.707334 958.890097zM511.707334 104.830557c-54.895261 0-108.135836 10.746762-158.246117 31.94148-48.411593 20.476357-91.892897 49.79408-129.237433 87.137593-37.344536 37.34556-66.662259 80.826863-87.138616 129.237433-21.194718 50.110281-31.94148 103.351879-31.94148 158.24714 0 54.895261 10.746762 108.136859 31.94148 158.24714 20.476357 48.41057 49.79408 91.892897 87.138616 129.237433s80.82584 66.662259 129.237433 87.137593c50.110281 21.194718 103.351879 31.94148 158.246117 31.94148s108.136859-10.746762 158.24714-31.94148c48.411593-20.476357 91.892897-49.793056 129.237433-87.137593s66.663282-80.826863 87.138616-129.237433c21.194718-50.110281 31.94148-103.351879 31.94148-158.24714 0-54.895261-10.746762-108.136859-31.94148-158.24714-20.476357-48.41057-49.79408-91.891873-87.138616-129.23641s-80.82584-66.662259-129.237433-87.138616C619.84317 115.577319 566.601572 104.830557 511.707334 104.830557z" p-id="1382" fill="#ffffff"></path><path d="M363.692233 413.883355c0.951675-29.122271 4.656043-51.93279 11.102872-68.408019 6.446829-16.47523 17.303085-31.517831 32.592302-45.127803 15.277962-13.609972 32.345686-23.638373 51.216475-30.085202 18.859533-6.446829 38.322817-9.670244 58.379619-9.670244 42.496883 0 77.238129 12.065803 104.223736 36.173874 26.973328 24.119327 40.47176 56.476269 40.47176 97.060593 0 20.537755-4.062526 38.210253-12.17632 53.007261-8.126075 14.807241-25.787316 34.864042-53.008284 60.170404-29.614481 28.182876-47.7577 48.955992-54.438866 62.319347-6.693446 13.374612-10.029424 35.580357-10.029424 66.617234l-49.425689 0c0.951675-28.170596 5.483898-51.93279 13.609972-71.273277 8.114818-19.339464 25.898857-43.090401 53.365418-71.272253 27.455305-28.17162 44.646849-48.104601 51.574632-59.812247 6.916527-11.69639 10.385535-26.37981 10.385535-44.053332 0-26.738991-8.719592-48.228421-26.145473-64.46829-17.438161-16.228613-40.953737-24.354688-70.556962-24.354688-63.998593 0-98.851379 37.7293-104.581893 113.177666L363.692233 413.884378zM537.040303 762.012124l-55.156204 0 0-58.737776 55.156204 0L537.040303 762.012124z" p-id="1383" fill="#ffffff"></path></svg>