<?xml version="1.0" standalone="no"?><!DOCTYPE svg PUBLIC "-//W3C//DTD SVG 1.1//EN" "http://www.w3.org/Graphics/SVG/1.1/DTD/svg11.dtd"><svg t="1501603962388" class="icon" style="" viewBox="0 0 1024 1024" version="1.1" xmlns="http://www.w3.org/2000/svg" p-id="13599" xmlns:xlink="http://www.w3.org/1999/xlink" width="200" height="200"><defs><style type="text/css"></style></defs><path d="M102.905484 1023.712081C102.646168 1017.717741 102.515168 1011.689561 102.515168 1005.63021L102.515168 915.122276C102.515168 769.419287 178.7135 641.479405 293.232075 568.834579L293.232075 568.834579C354.130201 614.699715 429.890013 641.888039 512 641.888039 594.182905 641.888039 670.004353 614.651403 730.930134 568.712342 845.458868 641.268955 921.484832 769.149616 921.484832 915.122276L921.484832 1005.63021C921.484832 1011.68912 921.353067 1017.717306 921.092265 1023.712081L102.905484 1023.712081 102.905484 1023.712081ZM512 545.979776C662.768152 545.979776 784.989891 423.75804 784.989891 272.989889 784.989891 122.221736 662.768152 0 512 0 361.231848 0 239.010111 122.221736 239.010111 272.989889 239.010111 423.75804 361.231848 545.979776 512 545.979776Z" p-id="13600" fill="#515151"></path></svg>