<?xml version="1.0" standalone="no"?><!DOCTYPE svg PUBLIC "-//W3C//DTD SVG 1.1//EN" "http://www.w3.org/Graphics/SVG/1.1/DTD/svg11.dtd"><svg t="1501603869798" class="icon" style="" viewBox="0 0 1024 1024" version="1.1" xmlns="http://www.w3.org/2000/svg" p-id="8950" xmlns:xlink="http://www.w3.org/1999/xlink" width="200" height="200"><defs><style type="text/css"></style></defs><path d="M595.2 582.4c-44.8 44.8-44.8 92.8-92.8 92.8s-92.8-44.8-137.6-92.8-92.8-92.8-92.8-137.6 44.8-44.8 92.8-92.8-92.8-182.4-137.6-182.4-137.6 137.6-137.6 137.6c0 92.8 92.8 278.4 182.4 368 89.6 89.6 275.2 182.4 368 182.4 0 0 137.6-92.8 137.6-137.6s-134.4-185.6-182.4-137.6z m252.8-345.6l44.8-25.6c9.6-6.4 16 0 16 6.4V352c0 9.6-6.4 12.8-16 6.4l-44.8-25.6c-9.6-6.4-16-9.6-16-19.2v-60.8c0-6.4 6.4-12.8 16-16z m-73.6-51.2h-172.8c-19.2 0-32 16-32 32v140.8c0 19.2 16 32 32 32h172.8c19.2 0 32-16 32-32v-140.8c0-16-12.8-32-32-32z" fill="#515151" p-id="8951"></path></svg>