<?xml version="1.0" standalone="no"?><!DOCTYPE svg PUBLIC "-//W3C//DTD SVG 1.1//EN" "http://www.w3.org/Graphics/SVG/1.1/DTD/svg11.dtd"><svg t="1501603739393" class="icon" style="" viewBox="0 0 1024 1024" version="1.1" xmlns="http://www.w3.org/2000/svg" p-id="4504" xmlns:xlink="http://www.w3.org/1999/xlink" width="200" height="200"><defs><style type="text/css"></style></defs><path d="M882.4 151.2h-772c-19.2 0-35.2 16-35.2 35.2v651.2c0 19.2 16 35.2 35.2 35.2H912c19.2 0 35.2-16 35.2-35.2v-620.8c0-36.8-28.8-65.6-64.8-65.6m20.8 507.2l-224-195.2-123.2 127.2 56 83.2-257.6-224.8-234.4 198.4V224c0-16 12.8-28.8 28.8-28.8h726.4c16 0 28.8 12.8 28.8 28.8l-0.8 434.4z" fill="#515151" p-id="4505"></path></svg>