<?xml version="1.0" standalone="no"?><!DOCTYPE svg PUBLIC "-//W3C//DTD SVG 1.1//EN" "http://www.w3.org/Graphics/SVG/1.1/DTD/svg11.dtd"><svg t="1501589775936" class="icon" style="" viewBox="0 0 1025 1024" version="1.1" xmlns="http://www.w3.org/2000/svg" p-id="3375" xmlns:xlink="http://www.w3.org/1999/xlink" width="200.1953125" height="200"><defs><style type="text/css"></style></defs><path d="M1004.49893 512c0-136.523746-58.519467-263.310713-146.285536-346.20214C765.566431 73.148395 648.540003 19.513575 512.011255 19.513575c-136.523746 0-263.311963 53.642323-346.20339 146.284285C73.15965 248.689287 19.52358 375.473753 19.52358 512c0 136.524996 53.642323 258.438572 146.284285 351.086786 82.891427 87.766069 209.675893 146.283035 346.20339 146.283035 136.523746 0 253.56518-58.519467 346.20339-146.283035C945.981965 770.438572 1004.49893 648.537502 1004.49893 512L1004.49893 512zM872.842323 151.158927c92.649465 87.76732 151.160178 214.549284 151.160178 360.841073 0 141.412144-58.519467 268.189107-151.160178 365.711963C775.319467 970.360178 653.412144 1023.997499 512.001251 1023.997499c-146.284285 0-273.063749-53.643574-360.841073-146.285536C58.510713 780.189107 0 653.412144 0 512c0-146.284285 58.519467-273.063749 151.160178-360.841073C238.927497 58.510713 365.709462 0 512.001251 0 653.412144 0 775.314464 58.519467 872.842323 151.158927L872.842323 151.158927z" p-id="3376"></path><path d="M282.825539 516.872141c0-14.625177 4.877143-29.254106 14.626428-43.884285 9.755537-9.754287 24.383215-14.626428 39.004641-14.626428 14.626428 0 29.256607 4.877143 43.885536 14.626428 9.755537 14.626428 14.626428 29.256607 14.626428 43.884285s-4.877143 34.13375-14.626428 43.886786c-14.626428 9.755537-29.255356 14.625177-43.885536 14.625177-14.626428 0-29.255356-4.874642-39.004641-14.625177C287.696429 551.00339 282.825539 531.503571 282.825539 516.872141L282.825539 516.872141zM741.183215 526.625177 741.183215 492.491427c-4.877143-112.158038-58.520717-219.43143-136.524996-287.700181 0 0-9.755537 0-24.384466 0-19.503571 0-39.00339 14.626428-39.00339 39.005891 0 14.626428 29.255356 34.13375 39.00339 39.004641 53.643574 58.519467 87.769821 136.523746 87.769821 219.430179 0 97.524107-39.005891 180.414284-102.408754 238.928748-14.625177 4.877143-24.383215 19.503571-24.383215 39.00339 0 19.506072 19.504821 39.005891 39.004641 39.005891 14.626428 0 24.383215-4.877143 24.383215-4.877143 78.021787-68.272503 131.655356-170.668751 136.524996-287.700181L741.183215 526.625177 741.183215 526.625177zM472.99786 331.575712c0 0-9.755537-9.755537-24.383215-9.755537-14.628929 0-29.256607 14.626428-29.256607 34.13375 0 19.503571 14.626428 29.255356 19.503571 34.13375 39.005891 24.384466 68.272503 73.145894 68.272503 126.779464 0 53.643574-29.256607 102.406253-68.272503 126.779464-4.877143 4.877143-19.503571 9.755537-19.503571 34.13375 0 19.506072 14.626428 34.13375 29.256607 34.13375 14.626428 0 24.383215-9.755537 24.383215-9.755537 58.519467-39.00339 92.649465-107.273392 92.649465-185.293928 0-78.021787-34.135001-146.284285-92.649465-185.293928L472.99786 331.575712 472.99786 331.575712z" p-id="3377"></path></svg>