<?xml version="1.0" standalone="no"?><!DOCTYPE svg PUBLIC "-//W3C//DTD SVG 1.1//EN" "http://www.w3.org/Graphics/SVG/1.1/DTD/svg11.dtd"><svg t="1501603824880" class="icon" style="" viewBox="0 0 1024 1024" version="1.1" xmlns="http://www.w3.org/2000/svg" p-id="7638" xmlns:xlink="http://www.w3.org/1999/xlink" width="200" height="200"><defs><style type="text/css"></style></defs><path d="M298.68928 238.58432C298.68928 118.60672 394.419392 21.333333 512 21.333333 629.820651 21.333333 725.369963 119.007125 725.369963 238.58432L725.369963 509.557248C725.369963 629.534848 629.579563 726.779627 512 726.779627 394.177259 726.779627 298.68928 629.104768 298.68928 509.557248L298.68928 291.629355 298.68928 238.58432ZM853.333333 509.311488 796.472853 509.311488C796.472853 669.158379 668.873195 799.257707 512 799.257707 355.155883 799.257707 227.556245 669.159445 227.556245 509.311488L170.666667 509.311488C170.666667 691.370027 308.646997 840.972331 483.571307 855.770901L483.571307 943.753067 391.912811 943.753067C390.403883 943.753067 388.926123 943.970219 387.476416 944.215979 375.072384 946.400277 365.507477 957.413952 365.507477 970.673344L365.507477 975.780288C365.507477 989.038635 375.073429 1000.051221 387.476416 1002.205867 388.927168 1002.451627 390.403883 1002.666667 391.912811 1002.666667L632.115243 1002.666667C633.623125 1002.666667 635.071787 1002.482347 636.520448 1002.205867 648.954624 1000.051221 658.491477 989.037568 658.491477 975.780288L658.491477 970.673344C658.491477 957.413952 648.954624 946.401344 636.520448 944.215979 635.070763 943.971285 633.623125 943.753067 632.115243 943.753067L540.457771 943.753067 540.457771 855.770901C715.350912 840.972331 853.333333 691.370027 853.333333 509.311488L853.333333 509.311488Z" p-id="7639" fill="#515151"></path></svg>